<svg width="309" height="1130" viewBox="0 0 309 1130" fill="none" xmlns="http://www.w3.org/2000/svg">
<path d="M90.0001 405C328.5 209 302.5 59 309 0.5V1129.5C302.5 1078.5 275.9 938 223.5 784C158 591.5 -148.5 601 90.0001 405Z" fill="#04524C"/>
<path d="M132.338 436.036C325.17 278.056 303.745 157.152 309 110V1020C303.745 978.893 282.642 865.647 240.276 741.519C187.317 586.36 -60.4945 594.017 132.338 436.036Z" fill="#00422E"/>
<path d="M174.617 467.498C320.209 348.058 305.032 256.649 309 221V909C305.032 877.921 288.099 792.302 256.112 698.456C216.127 581.149 29.0242 586.938 174.617 467.498Z" fill="#006443"/>
<path d="M219.314 500.093C316.118 420.582 306.362 359.732 309 336V794C306.362 773.311 294.768 716.314 273.5 653.841C246.914 575.75 122.511 579.604 219.314 500.093Z" fill="#BB815C"/>
<path d="M248.403 521.351C313.455 467.88 307.227 426.959 309 411V719C307.227 705.087 299.108 666.757 284.816 624.745C266.95 572.229 183.351 574.821 248.403 521.351Z" fill="#F7AE73"/>
</svg>
