<svg width="498" height="356" viewBox="0 0 498 356" fill="none" xmlns="http://www.w3.org/2000/svg">
<path d="M206.218 205.734C97.6034 205.734 80.0848 255.15 0 356V0H497.027C469.998 0 381.905 5.04249 363.885 98.8329C348.579 178.504 252.267 205.734 206.218 205.734Z" fill="#04524C"/>
<path d="M173.505 173.371C82.1201 173.371 67.3806 215.014 0 300V0H418.181C395.44 0 321.321 4.24929 306.161 83.2861C293.282 150.425 212.249 173.371 173.505 173.371Z" fill="#00422E"/>
<path d="M173.505 173.371C82.1201 173.371 67.3806 215.014 0 300V0H418.181C395.44 0 321.321 4.24929 306.161 83.2861C293.282 150.425 212.249 173.371 173.505 173.371Z" fill="#00422E"/>
<path d="M128.783 128.873C60.9531 128.873 50.0128 159.827 0 223V0H310.392C293.513 0 238.499 3.15864 227.246 61.9093C217.687 111.816 157.54 128.873 128.783 128.873Z" fill="#00422E"/>
<path d="M128.783 128.873C60.9531 128.873 50.0128 159.827 0 223V0H310.392C293.513 0 238.499 3.15864 227.246 61.9093C217.687 111.816 157.54 128.873 128.783 128.873Z" fill="#006443"/>
<path d="M93.9992 94.1983C44.4899 94.1983 36.5045 116.824 0 163V0H226.556C214.236 0 174.081 2.30878 165.867 45.2521C158.89 81.7309 114.989 94.1983 93.9992 94.1983Z" fill="#BB815C"/>
<path d="M64.1845 64.1473C30.3786 64.1473 24.926 79.5552 0 111V0H154.697C146.284 0 118.866 1.57224 113.258 30.8159C108.493 55.6572 78.5169 64.1473 64.1845 64.1473Z" fill="#F7AE73"/>
</svg>
