<svg width="1038" height="909" viewBox="0 0 1038 909" fill="none" xmlns="http://www.w3.org/2000/svg">
<path d="M340.011 146.89C69.9154 96.8782 179.159 296.825 267.543 403.05C345.066 511.307 469.665 788.305 696.168 869.626C979.296 971.276 765.264 793.896 837.732 570.773C910.199 347.65 677.629 209.405 340.011 146.89Z" fill="url(#paint0_linear_104_2)"/>
<path d="M577.1 704.503C513.493 703.195 444.944 712.714 371.454 733.061C297.964 753.407 231.112 747.225 170.899 714.513C110.686 681.802 126.07 630.901 217.05 561.812C308.031 492.722 339.997 425.806 312.951 361.064C285.904 296.323 309.753 251.883 384.498 227.745C459.243 203.606 534.805 177.156 611.185 148.393C687.565 119.631 758.807 117.758 824.909 142.775C891.012 167.792 898.261 219.121 846.657 296.761C795.052 374.401 763.697 432.683 752.591 471.606C741.485 510.529 725.361 559.403 704.221 618.228C683.081 677.053 640.707 705.811 577.1 704.503Z" fill="url(#paint1_linear_104_2)"/>
<defs>
<linearGradient id="paint0_linear_104_2" x1="276.531" y1="123.511" x2="703.115" y2="1049.08" gradientUnits="userSpaceOnUse">
<stop stop-color="#BB815C"/>
<stop offset="1" stop-color="#00422E"/>
</linearGradient>
<linearGradient id="paint1_linear_104_2" x1="903.536" y1="232.142" x2="134.027" y2="676.418" gradientUnits="userSpaceOnUse">
<stop stop-color="#FCC191"/>
<stop offset="1" stop-color="#FAAB6D"/>
</linearGradient>
</defs>
</svg>
