<svg width="1920" height="646" viewBox="0 0 1920 646" fill="none" xmlns="http://www.w3.org/2000/svg">
<path d="M376.619 407.821C67.8423 324.938 0.352627 106 0 0V645.5H1920V86C1868.67 215.674 1735.81 470.999 1619.02 455.56C1473.03 436.261 1216.55 332.149 1068.07 340.783C919.577 349.417 762.589 511.424 376.619 407.821Z" fill="#04524C"/>
<path d="M376.619 447.035C67.8423 377.827 0.352627 195.011 0 106.5V645.5H1920V178.311C1868.67 286.59 1735.81 499.789 1619.02 486.898C1473.03 470.783 1216.55 383.849 1068.07 391.058C919.577 398.267 762.589 533.545 376.619 447.035Z" fill="#00422E"/>
<path d="M376.619 489.747C67.8423 435.434 0.352627 291.962 0 222.5V645.5H1920V278.856C1868.67 363.832 1735.81 531.148 1619.02 521.031C1473.03 508.384 1216.55 440.159 1068.07 445.817C919.577 451.475 762.589 557.64 376.619 489.747Z" fill="#006443"/>
<path d="M371.5 522.5C62.7237 483.594 0.352627 366.257 0 316.5V645.5H1920V351.5C1868.67 412.369 1735.81 563.588 1619.02 556.341C1473.03 547.282 1207.49 479.447 1059 483.5C910.511 487.553 757.47 571.132 371.5 522.5Z" fill="#BB815C"/>
<path d="M376.619 575.172C67.8423 550.647 0.352627 441.865 0 410.5V645.5H1920V436C1868.67 474.37 1735.79 602.068 1619 597.5C1473.01 591.79 1222.99 525.945 1074.5 528.5C926.011 531.055 762.589 605.828 376.619 575.172Z" fill="#F7AE73"/>
</svg>
