<svg width="1720" height="658" viewBox="0 0 1720 658" fill="none" xmlns="http://www.w3.org/2000/svg">
<path d="M562.255 345.104C435.832 285.412 137.181 329.867 137.181 240.761C133.688 189.023 179.407 -48.2034 382.251 32.6428C635.805 133.701 661.661 160.1 802.712 195.428C972.732 229.968 1276.15 204.257 1457.86 178.226C1699.09 143.668 1584.46 509.899 1457.86 536.431C1331.25 562.962 1108.75 500.788 1053.64 619.428C983.985 769.402 759 438 562.255 345.104Z" fill="#00422E"/>
<path d="M368.374 199.069C244.103 280.605 173.989 199.069 66.6412 199.069C34.7272 203.571 -21.5577 235.985 8.61565 329.626C46.3323 446.677 305.997 347.134 575.332 485.694C844.668 624.254 771.169 553.724 1123.19 452.179C1475.21 350.635 1516.8 485.694 1669.6 281.105C1822.4 76.5154 1590.3 51.0043 1469.89 65.0104C1349.49 79.0165 1157.04 115.532 1034.7 51.0043C912.364 -13.5238 743.123 -5.52034 598.059 13.9882C477.656 33.4967 492.646 117.533 368.374 199.069Z" fill="url(#paint0_radial_115_2)"/>
<defs>
<radialGradient id="paint0_radial_115_2" cx="0" cy="0" r="1" gradientUnits="userSpaceOnUse" gradientTransform="translate(860 281.5) rotate(90) scale(281.5 860)">
<stop stop-color="#04524C"/>
<stop offset="1" stop-color="#AD7D59"/>
</radialGradient>
</defs>
</svg>
