<svg width="197" height="725" viewBox="0 0 197 725" fill="none" xmlns="http://www.w3.org/2000/svg">
<path d="M154 364.5C277.2 121.3 102.667 20.1667 0 0V725C0 706.167 30.8 607.7 154 364.5Z" fill="#04524C"/>
<path d="M154 364.5C277.2 121.3 102.667 20.1667 0 0V725C0 706.167 30.8 607.7 154 364.5Z" fill="#04524C"/>
<path d="M119.985 343.059C215.974 153.53 79.9902 74.7161 0 59V624C0 609.323 23.9971 532.587 119.985 343.059Z" fill="#00422E"/>
<path d="M94.1062 323.722C169.391 175.118 62.7374 113.323 0 101V544C0 532.492 18.8212 472.326 94.1062 323.722Z" fill="#006443"/>
<path d="M67.4427 303.374C121.397 197.037 44.9618 152.818 0 144V461C0 452.765 13.4886 409.712 67.4427 303.374Z" fill="#BB815C"/>
<path d="M45.4846 287.088C81.8724 215.637 30.3231 185.925 0 180V393C0 387.467 9.09693 358.538 45.4846 287.088Z" fill="#F7AE73"/>
</svg>
